<?xml version="1.0" standalone="no"?>
<!DOCTYPE svg PUBLIC "-//W3C//DTD SVG 20010904//EN"
 "http://www.w3.org/TR/2001/REC-SVG-20010904/DTD/svg10.dtd">
<svg version="1.0" xmlns="http://www.w3.org/2000/svg"
 width="6350.000000pt" height="5000.000000pt" viewBox="0 0 6350.000000 5000.000000"
 preserveAspectRatio="xMidYMid meet">

<g transform="translate(0.000000,5000.000000) scale(0.100000,-0.100000)"
fill="#000000" stroke="none">
<path d="M42888 37523 c9 -4 12 -257 12 -1218 l0 -1213 1390 -1 1390 -2 0
1221 0 1220 -1402 -1 c-772 0 -1397 -3 -1390 -6z m889 -1805 c-1 -332 -2 -61
-2 602 0 663 1 934 2 603 2 -332 2 -874 0 -1205z m-694 -605 c-24 -2 -62 -2
-85 0 -24 2 -5 4 42 4 47 0 66 -2 43 -4z"/>
<path d="M14087 35772 c-108 -239 -189 -543 -229 -862 -19 -156 -16 -582 6
-740 36 -257 90 -479 173 -710 55 -153 70 -183 86 -174 9 5 9 4 0 -6 -9 -10
-8 -21 5 -49 9 -20 21 -39 25 -42 5 -3 8 -10 8 -15 -2 -21 10 -41 25 -41 8 0
13 6 10 13 -3 8 0 16 6 20 7 4 8 3 4 -4 -4 -7 -2 -12 4 -12 6 0 8 11 6 26 -4
20 -2 24 10 20 8 -3 13 -2 11 2 -7 10 9 393 26 652 9 124 20 334 26 468 25
553 35 722 42 722 4 0 10 73 12 163 2 89 9 248 17 353 12 174 12 193 -2 208
-9 9 -25 17 -35 19 -10 2 -38 10 -63 19 -25 8 -66 22 -91 31 l-47 15 -35 -76z
m90 -154 c-2 -13 -4 -3 -4 22 0 25 2 35 4 23 2 -13 2 -33 0 -45z m140 -80 c-2
-13 -4 -3 -4 22 0 25 2 35 4 23 2 -13 2 -33 0 -45z m0 -160 c-2 -13 -4 -3 -4
22 0 25 2 35 4 23 2 -13 2 -33 0 -45z m-120 -80 c-2 -13 -4 -3 -4 22 0 25 2
35 4 23 2 -13 2 -33 0 -45z m0 -160 c-2 -13 -4 -3 -4 22 0 25 2 35 4 23 2 -13
2 -33 0 -45z m113 -58 c0 -66 -4 -120 -8 -120 -5 0 -15 -162 -22 -360 -7 -198
-17 -360 -22 -360 -12 0 -10 145 6 400 8 124 18 300 21 393 4 92 11 167 16
167 5 0 9 -54 9 -120z m-123 -102 c-2 -13 -4 -3 -4 22 0 25 2 35 4 23 2 -13 2
-33 0 -45z m-50 -800 c-2 -13 -4 -3 -4 22 0 25 2 35 4 23 2 -13 2 -33 0 -45z
m-40 -80 c-2 -13 -4 -3 -4 22 0 25 2 35 4 23 2 -13 2 -33 0 -45z m140 -200
c-2 -35 -3 -7 -3 62 0 69 1 97 3 63 2 -35 2 -91 0 -125z m-8 -305 c1 -43 -3
-73 -9 -73 -6 0 -10 -60 -10 -160 0 -112 -3 -160 -11 -160 -8 0 -10 20 -6 68
4 37 10 164 14 282 5 150 9 200 14 165 4 -27 8 -83 8 -122z m-72 -337 c0 -8
-6 -12 -15 -9 -11 5 -11 7 0 14 7 5 13 9 14 9 0 0 1 -6 1 -14z"/>
<path d="M42653 35103 c42 -2 112 -2 155 0 42 1 7 3 -78 3 -85 0 -120 -2 -77
-3z"/>
<path d="M15555 33560 c-3 -5 -1 -10 4 -10 6 0 11 5 11 10 0 6 -2 10 -4 10 -3
0 -8 -4 -11 -10z"/>
<path d="M15540 33530 c6 -11 13 -20 16 -20 2 0 0 9 -6 20 -6 11 -13 20 -16
20 -2 0 0 -9 6 -20z"/>
<path d="M15598 33523 c7 -3 16 -2 19 1 4 3 -2 6 -13 5 -11 0 -14 -3 -6 -6z"/>
<path d="M14210 33130 c0 -5 -7 -10 -16 -10 -8 0 -12 -5 -9 -11 4 -6 13 -8 21
-5 8 3 14 -1 14 -9 0 -7 4 -16 8 -19 6 -4 7 15 3 57 -1 11 -21 8 -21 -3z"/>
<path d="M14200 33081 c0 -6 4 -13 10 -16 6 -3 7 1 4 9 -7 18 -14 21 -14 7z"/>
<path d="M10525 32711 c-11 -5 -26 -6 -32 -4 -7 3 -13 0 -13 -6 0 -6 -7 -8
-17 -4 -11 4 -14 3 -9 -5 5 -8 2 -10 -9 -6 -8 4 -23 0 -32 -7 -14 -12 -16 -12
-9 0 6 10 4 12 -10 7 -11 -3 -94 -26 -184 -50 -166 -44 -564 -165 -610 -186
-22 -9 -20 -10 15 -5 109 15 411 17 570 4 94 -7 185 -13 203 -14 17 0 32 -4
32 -8 0 -4 12 -6 28 -4 15 2 35 0 44 -4 13 -7 16 -5 15 10 0 11 -4 18 -8 15
-4 -2 -7 4 -6 15 0 11 6 19 11 18 6 -1 14 21 17 48 11 80 10 115 -3 115 -7 0
-14 11 -14 25 -1 15 2 22 9 18 6 -3 7 -1 3 5 -4 7 -1 12 8 12 8 0 18 5 21 10
7 11 7 11 -20 1z m-39 -50 c0 -15 -3 -17 -18 -7 -17 10 -17 11 0 18 9 3 17 7
17 7 1 1 1 -7 1 -18z m-112 -7 c3 -8 2 -12 -4 -9 -6 3 -10 10 -10 16 0 14 7
11 14 -7z m74 -75 c3 -94 9 -122 25 -113 7 4 3 -2 -7 -14 -22 -26 -32 -27 -39
-8 -4 10 -1 13 8 10 9 -4 12 1 10 13 -2 10 -4 55 -4 101 -1 53 -5 81 -11 77
-5 -3 -10 -1 -10 5 0 7 6 10 13 8 8 -3 13 -30 15 -79z m-91 -105 c-3 -3 -12
-4 -19 -1 -8 3 -5 6 6 6 11 1 17 -2 13 -5z"/>
<path d="M32810 32714 c0 -5 7 -18 15 -28 8 -11 15 -16 15 -10 0 5 -7 18 -15
28 -8 11 -15 16 -15 10z"/>
<path d="M10543 32660 c1 -21 10 -18 13 5 1 8 -2 15 -6 15 -5 0 -8 -9 -7 -20z"/>
<path d="M32860 32670 c-8 -5 -10 -10 -5 -10 6 0 17 5 25 10 8 5 11 10 5 10
-5 0 -17 -5 -25 -10z"/>
<path d="M32938 32673 c7 -3 16 -2 19 1 4 3 -2 6 -13 5 -11 0 -14 -3 -6 -6z"/>
<path d="M32806 32653 c-6 -14 -5 -15 5 -6 7 7 10 15 7 18 -3 3 -9 -2 -12 -12z"/>
<path d="M32910 32666 c0 -3 9 -10 20 -16 11 -6 20 -8 20 -6 0 3 -9 10 -20 16
-11 6 -20 8 -20 6z"/>
<path d="M32980 32559 c4 -92 2 -112 -10 -120 -22 -13 6 -12 33 2 20 9 20 9 5
-4 -26 -20 -22 -28 10 -21 21 4 24 3 12 -5 -13 -10 -13 -11 0 -12 8 0 25 -2
38 -5 21 -4 22 -1 22 77 0 79 -11 109 -39 109 -6 0 -10 11 -9 24 1 14 5 23 8
21 4 -2 7 2 7 9 0 8 -6 12 -13 9 -8 -3 -21 2 -29 11 -35 35 -40 21 -35 -95z"/>
<path d="M32886 32652 c-3 -5 1 -9 9 -9 8 0 12 4 9 9 -3 4 -7 8 -9 8 -2 0 -6
-4 -9 -8z"/>
<path d="M33070 32625 c0 -17 2 -18 24 -9 18 7 12 24 -10 24 -8 0 -14 -7 -14
-15z"/>
<path d="M33115 32620 c-3 -4 1 -11 7 -14 7 -3 3 -3 -9 -1 -12 3 -24 1 -28 -5
-3 -5 -2 -10 4 -10 6 0 7 -7 4 -17 -4 -9 -2 -14 3 -11 5 4 8 -34 6 -93 -3 -85
-1 -99 12 -99 26 0 30 -1 43 -12 7 -6 20 -8 28 -4 9 3 14 2 11 -3 -5 -8 31
-27 64 -33 8 -2 17 -6 20 -9 3 -3 57 -30 120 -60 304 -146 652 -379 951 -636
l116 -101 8 145 c4 80 5 146 3 147 -1 2 -34 30 -73 63 -207 175 -414 326 -615
446 -151 90 -409 219 -422 211 -4 -3 -8 -1 -8 4 0 14 -79 42 -97 35 -11 -4
-14 -2 -9 5 4 7 2 13 -3 13 -21 3 -26 4 -38 12 -27 17 -93 35 -98 27z m83 -29
c11 -7 10 -9 -3 -14 -11 -5 -14 -3 -9 5 5 8 2 9 -10 5 -10 -4 -15 -3 -11 3 7
12 16 12 33 1z m-58 -201 c0 -5 -5 -10 -11 -10 -5 0 -7 5 -4 10 3 6 8 10 11
10 2 0 4 -4 4 -10z"/>
<path d="M33050 32600 c0 -5 5 -10 10 -10 6 0 10 5 10 10 0 6 -4 10 -10 10 -5
0 -10 -4 -10 -10z"/>
<path d="M32855 32470 c-3 -5 -1 -10 4 -10 6 0 11 5 11 10 0 6 -2 10 -4 10 -3
0 -8 -4 -11 -10z"/>
<path d="M19440 30908 l0 -145 49 -46 c219 -205 642 -347 1161 -388 174 -14
518 -6 675 16 211 29 470 90 458 108 -3 6 -1 7 5 3 13 -8 91 11 110 27 7 6 23
12 36 13 12 1 40 10 62 20 21 9 44 18 49 19 6 0 9 6 8 11 -1 6 8 9 22 6 17 -3
31 4 50 24 16 17 23 21 19 10 -7 -17 -5 -17 24 -2 17 9 33 20 37 25 3 6 13 7
23 4 16 -6 16 -6 0 11 -14 14 -18 34 -17 94 2 122 17 144 18 26 1 -79 4 -104
17 -114 12 -11 15 -11 12 0 -2 8 4 14 12 15 10 0 15 11 15 35 0 31 3 35 28 38
27 3 27 4 27 83 0 49 -4 79 -11 79 -5 0 -7 6 -3 13 5 8 2 8 -9 -2 -9 -7 -17
-10 -17 -5 0 5 -7 0 -15 -10 -8 -11 -15 -16 -15 -11 0 4 -9 0 -20 -10 -11 -10
-20 -15 -20 -10 0 4 -7 2 -15 -5 -8 -7 -15 -9 -15 -4 0 4 -7 -1 -16 -12 -8
-10 -12 -12 -8 -4 5 9 -4 7 -30 -8 -20 -12 -44 -22 -52 -22 -9 0 -12 -5 -8
-12 4 -6 3 -8 -3 -5 -13 8 -205 -71 -220 -91 -7 -9 -13 -11 -13 -4 0 7 -20 4
-57 -9 -91 -31 -270 -77 -368 -93 -310 -53 -795 -36 -1164 40 -359 74 -671
231 -793 398 l-28 39 0 -145z m2877 -72 c3 -32 2 -33 -36 -32 -34 1 -38 3 -30
19 6 9 7 17 4 17 -4 0 -3 5 1 11 4 7 15 1 30 -17 18 -23 23 -25 24 -11 0 9 -4
17 -8 17 -4 0 -8 9 -9 19 -1 12 3 18 10 15 7 -2 13 -19 14 -38z m-157 -46 c0
-5 -5 -10 -11 -10 -5 0 -7 5 -4 10 3 6 8 10 11 10 2 0 4 -4 4 -10z m110 -94
c0 -8 3 -23 7 -33 6 -15 4 -16 -9 -5 -13 10 -17 10 -21 0 -3 -7 -4 -3 -4 9 1
12 5 19 9 17 4 -3 8 -1 8 5 0 5 -6 12 -12 14 -8 3 -6 6 5 6 9 1 17 -5 17 -13z
m-143 -71 c0 -8 -4 -15 -9 -15 -10 0 -11 14 -1 23 9 10 10 9 10 -8z m-248
-106 c-19 -11 -24 -3 -8 14 8 9 16 11 18 5 2 -6 -3 -14 -10 -19z"/>
<path d="M22260 30826 c0 -2 7 -7 16 -10 8 -3 12 -2 9 4 -6 10 -25 14 -25 6z"/>
<path d="M14057 30962 c-20 -21 -37 -40 -37 -42 0 -3 64 -70 141 -150 290
-299 545 -638 791 -1050 98 -165 252 -442 279 -503 8 -18 18 -26 27 -22 11 4
12 2 4 -8 -14 -17 22 -82 40 -71 7 4 8 3 4 -4 -4 -7 -1 -12 6 -12 10 0 10 -2
1 -8 -9 -6 -7 -16 7 -40 11 -18 25 -30 30 -27 15 10 12 28 -4 22 -8 -3 -17 0
-19 7 -7 17 23 15 42 -2 11 -11 10 -16 -5 -34 -19 -21 -19 -21 4 -9 19 10 22
18 17 41 -7 30 15 77 28 63 16 -15 5 6 -13 27 -11 13 -20 29 -20 37 0 18 -40
96 -54 105 -6 4 -7 8 -3 8 12 0 -175 344 -296 545 -127 211 -326 498 -461 665
-139 173 -444 500 -465 500 -4 0 -24 -17 -44 -38z m1267 -1718 c3 -8 2 -12 -4
-9 -6 3 -10 10 -10 16 0 14 7 11 14 -7z"/>
<path d="M22456 30971 c-4 -5 3 -7 14 -4 23 6 26 13 6 13 -8 0 -17 -4 -20 -9z"/>
<path d="M22446 30915 c-11 -8 -15 -15 -9 -15 6 0 16 7 23 15 16 19 11 19 -14
0z"/>
<path d="M22448 30883 c7 -3 16 -2 19 1 4 3 -2 6 -13 5 -11 0 -14 -3 -6 -6z"/>
<path d="M22654 30856 c1 -8 5 -18 8 -22 4 -3 5 1 4 10 -1 8 -5 18 -8 22 -4 3
-5 -1 -4 -10z"/>
<path d="M22455 30791 c-3 -5 -1 -12 5 -16 5 -3 10 1 10 9 0 18 -6 21 -15 7z"/>
<path d="M22450 30746 c0 -2 7 -7 16 -10 8 -3 12 -2 9 4 -6 10 -25 14 -25 6z"/>
<path d="M22410 30730 c-11 -7 -11 -10 -2 -10 8 0 10 -5 6 -12 -4 -7 -3 -9 1
-5 7 6 17 37 12 37 -1 0 -9 -5 -17 -10z"/>
<path d="M22290 30685 c0 -5 4 -16 9 -24 10 -15 31 -7 30 12 0 8 -2 8 -6 -1
-4 -10 -8 -9 -19 5 -7 10 -13 14 -14 8z"/>
<path d="M15395 29082 c-3 -8 -3 -17 0 -20 3 -3 5 1 5 8 0 9 6 8 20 -5 18 -16
20 -16 20 -2 0 10 -5 17 -11 17 -5 0 -8 4 -5 8 3 5 -1 9 -9 9 -8 0 -17 -7 -20
-15z"/>
<path d="M15450 29010 c-9 -6 -10 -10 -3 -10 6 0 15 5 18 10 8 12 4 12 -15 0z"/>
<path d="M15376 28947 c3 -10 9 -15 12 -12 3 3 0 11 -7 18 -10 9 -11 8 -5 -6z"/>
<path d="M53411 22544 c-46 -8 -132 -30 -190 -50 -383 -128 -621 -401 -657
-756 l-7 -66 114 -85 c261 -193 496 -316 751 -392 48 -14 90 -30 94 -36 22
-37 227 -651 273 -822 11 -39 32 -112 46 -162 41 -147 75 -321 75 -389 0 -35
3 -84 6 -109 l7 -46 73 -16 c58 -13 74 -20 74 -34 0 -38 -70 -271 -108 -359
-60 -139 -118 -229 -198 -309 -94 -96 -174 -135 -287 -141 -175 -10 -315 55
-374 176 -24 49 -27 68 -27 147 1 112 27 212 94 353 27 56 47 102 44 102 -3 0
-50 -13 -106 -30 -55 -16 -115 -30 -133 -30 -54 0 -192 -29 -289 -61 -119 -40
-361 -157 -511 -248 -128 -78 -305 -198 -305 -208 0 -3 79 -111 176 -240 l176
-235 -35 -77 c-49 -106 -60 -153 -58 -252 2 -148 32 -265 129 -503 l65 -161 8
-255 c4 -140 14 -313 23 -385 42 -353 87 -1070 88 -1410 l1 -250 -52 -205
c-28 -113 -67 -261 -86 -330 -45 -163 -96 -520 -189 -1325 -104 -893 -204
-2011 -209 -2333 l-2 -136 165 -54 c561 -182 1357 -342 2055 -412 434 -43 586
-52 1013 -57 l432 -6 0 -96 0 -96 102 -17 101 -17 766 476 c421 262 772 481
780 488 11 11 12 174 6 1013 l-8 1001 -64 7 c-58 6 -81 2 -262 -50 -110 -31
-203 -56 -209 -56 -5 0 -12 28 -16 63 -10 92 -37 237 -45 237 -3 0 -28 -23
-54 -49 l-48 -49 20 -118 c11 -65 19 -119 18 -120 -9 -8 -291 -84 -295 -79 -9
9 27 345 44 410 18 68 13 109 -18 142 -65 69 -154 -25 -198 -209 -11 -46 -23
-121 -26 -168 -4 -47 -9 -121 -13 -164 l-6 -79 -170 -49 c-93 -26 -175 -48
-181 -48 -6 0 -17 79 -27 204 -21 243 -57 498 -87 616 -64 249 -183 557 -330
855 -153 309 -281 506 -442 681 -68 74 -85 100 -186 305 -122 246 -210 461
-241 584 -11 44 -24 143 -30 220 -18 241 10 391 101 530 25 39 118 214 206
390 134 267 332 628 361 658 4 4 129 46 277 92 516 163 554 177 554 196 0 37
-94 339 -147 474 -124 313 -249 525 -415 700 -170 180 -328 259 -568 284 -52
5 -123 16 -157 23 -72 14 -64 -2 -89 193 -22 171 -14 446 20 770 57 535 81
1031 57 1207 -65 483 -357 772 -858 847 -96 15 -279 12 -382 -5z"/>
<path d="M15820 22275 c-231 -32 -435 -106 -564 -203 -27 -20 -55 -41 -62 -46
-9 -7 -40 3 -101 31 -221 104 -414 78 -570 -76 -248 -246 -265 -570 -47 -877
112 -159 271 -259 433 -273 l74 -6 24 -90 c13 -49 40 -139 59 -200 44 -133
185 -517 189 -513 2 2 8 48 15 103 23 197 93 370 194 481 l53 58 -28 61 c-16
34 -32 88 -35 122 -13 118 58 203 175 211 69 5 108 -12 146 -62 27 -35 74
-156 75 -189 0 -18 7 -18 98 -12 258 17 457 55 615 117 45 18 150 72 232 119
l150 86 -1 149 c-2 230 -41 401 -137 589 -43 84 -66 115 -147 196 -99 99 -174
148 -297 190 -138 47 -351 60 -543 34z"/>
<path d="M37286 21928 c-39 -40 -168 -193 -286 -338 -682 -842 -626 -783
-1033 -1092 l-198 -150 -145 -54 c-428 -159 -909 -298 -1147 -331 -119 -17
-124 -17 -274 5 -293 42 -733 130 -1188 237 l-190 45 -588 24 -588 24 -202
-48 c-482 -114 -892 -229 -1158 -324 -132 -47 -159 -61 -187 -92 -136 -156
-446 -1066 -818 -2404 -58 -206 -137 -501 -175 -655 l-71 -280 -14 -380 c-17
-436 -92 -2619 -90 -2621 0 -1 66 9 145 22 352 59 640 141 656 187 8 22 34
302 85 917 85 1019 127 1460 155 1605 13 69 106 400 291 1035 52 179 97 333
100 343 3 10 7 17 9 15 13 -12 170 -1355 200 -1706 17 -198 14 -252 -26 -567
-44 -354 -172 -1179 -219 -1415 -16 -80 -34 -181 -40 -226 -6 -44 -37 -237
-70 -429 -33 -192 -56 -352 -52 -356 4 -3 28 -12 55 -19 55 -15 53 -4 36 -180
-20 -224 -60 -510 -134 -960 -41 -250 -79 -498 -85 -550 -6 -52 -15 -122 -20
-155 -5 -33 -19 -145 -30 -250 -44 -404 -116 -935 -216 -1600 -25 -165 -65
-430 -89 -590 -54 -358 -136 -950 -171 -1230 -34 -271 -40 -576 -25 -1115 11
-387 33 -973 47 -1277 l7 -143 38 0 c49 0 49 -5 10 -171 -75 -316 -116 -583
-109 -715 3 -71 6 -78 35 -105 71 -62 172 -70 848 -63 582 6 689 14 800 55 32
12 77 39 98 59 36 33 41 43 45 93 5 66 -18 123 -74 181 -49 50 -106 77 -322
151 -103 34 -205 71 -227 80 -101 44 -288 192 -388 309 -41 48 -48 61 -42 86
5 25 12 29 43 32 l37 3 13 80 c83 514 338 1969 452 2585 190 1023 301 1529
383 1746 151 396 672 2129 887 2952 30 111 57 199 61 195 10 -11 118 -272 201
-488 312 -809 524 -1567 617 -2205 36 -242 51 -430 61 -725 15 -430 33 -628
96 -1050 123 -820 330 -1761 668 -3045 l12 -45 106 -3 c78 -2 107 -6 111 -16
3 -8 -12 -89 -33 -182 -60 -260 -91 -446 -97 -591 -7 -156 1 -184 58 -213 75
-39 147 -41 936 -37 813 4 826 5 996 58 168 53 234 146 176 249 -40 72 -130
104 -534 196 -271 61 -395 94 -464 125 -73 32 -171 108 -289 225 -104 104
-113 115 -110 146 l3 33 78 3 78 3 -5 32 c-30 183 -128 1456 -221 2852 -45
692 -75 1124 -95 1400 -31 429 -39 572 -55 1050 -48 1430 -68 1844 -101 2095
-16 119 -70 469 -79 506 -3 16 1 23 15 27 17 4 20 14 20 56 0 99 -90 925 -286
2641 l-126 1095 6 210 c9 313 74 1306 94 1439 l7 48 95 55 c52 30 268 145 480
255 959 499 1338 715 1595 907 67 51 223 198 471 446 339 337 396 399 645 700
338 407 584 716 665 837 71 104 71 111 0 170 -91 76 -307 208 -485 298 l-84
42 -71 -74z"/>
<path d="M8189 21405 c-1 -3 -3 -9 -4 -15 -1 -5 -3 -11 -4 -12 -2 -2 -4 -13
-7 -25 -5 -28 12 -30 26 -3 9 16 8 19 -6 13 -15 -5 -15 -4 1 20 10 16 13 27 6
27 -6 0 -12 -2 -12 -5z"/>
<path d="M8160 21316 c0 -2 7 -6 15 -10 8 -3 15 -1 15 4 0 6 -7 10 -15 10 -8
0 -15 -2 -15 -4z"/>
<path d="M8170 20856 c0 -2 7 -9 15 -16 13 -11 14 -10 9 4 -5 14 -24 23 -24
12z"/>
<path d="M8216 20775 c-3 -8 -1 -15 4 -15 6 0 10 7 10 15 0 8 -2 15 -4 15 -2
0 -6 -7 -10 -15z"/>
<path d="M8170 20741 c0 -6 4 -13 10 -16 6 -3 7 1 4 9 -7 18 -14 21 -14 7z"/>
<path d="M45080 20454 c-327 -13 -559 -27 -580 -34 -86 -29 -600 -229 -812
-316 -337 -138 -435 -195 -586 -338 -200 -190 -310 -414 -348 -710 -54 -427
-322 -1797 -464 -2379 -17 -70 -64 -220 -104 -334 -114 -324 -298 -867 -640
-1888 -173 -517 -318 -948 -321 -957 -14 -36 245 -187 460 -266 122 -46 277
-92 307 -92 23 0 50 57 148 321 106 285 235 656 476 1369 118 349 242 712 275
805 154 428 479 1516 538 1800 l18 90 6 -75 c4 -41 9 -158 12 -260 3 -102 10
-259 17 -349 14 -209 0 -380 -122 -1426 -22 -187 -41 -353 -43 -369 l-2 -29
125 -32 c69 -18 242 -63 385 -99 143 -37 267 -70 276 -74 17 -7 24 22 -226
-952 -293 -1140 -416 -1614 -421 -1621 -3 -6 -319 70 -406 97 -21 6 -24 -17
-38 -241 -21 -349 -28 -537 -75 -1895 -8 -245 -20 -508 -25 -585 -6 -77 -28
-482 -50 -900 -119 -2243 -201 -3352 -275 -3703 -8 -40 -15 -78 -15 -83 0 -5
33 -9 74 -9 71 0 74 -1 80 -26 9 -32 -22 -72 -151 -193 -185 -176 -259 -211
-613 -291 -282 -64 -481 -116 -542 -143 -118 -52 -148 -166 -65 -248 60 -60
198 -105 402 -130 138 -17 1508 -15 1595 2 135 26 160 74 142 269 -14 153 -41
314 -89 525 -20 88 -38 177 -41 197 l-4 37 108 3 108 3 28 105 c184 676 425
1725 542 2350 144 777 189 1149 206 1726 5 175 16 382 25 459 87 804 332 1710
737 2720 55 138 106 261 113 274 15 30 6 55 80 -224 264 -988 692 -2431 866
-2912 32 -88 76 -235 98 -325 93 -382 271 -1312 486 -2548 75 -430 275 -1610
275 -1623 0 -4 18 -7 40 -7 39 0 40 -1 40 -35 0 -31 -12 -47 -102 -138 -117
-116 -215 -193 -305 -237 -34 -17 -141 -58 -239 -91 -230 -77 -292 -108 -343
-165 -50 -57 -77 -134 -67 -190 10 -52 66 -105 141 -134 124 -46 175 -50 801
-56 621 -7 725 -2 811 36 68 30 77 58 70 220 -6 145 -34 318 -96 598 -22 95
-37 182 -34 192 4 15 14 20 38 20 l33 0 6 83 c7 90 30 705 46 1192 15 474 13
957 -6 1137 -23 230 -94 750 -200 1468 -192 1308 -233 1603 -289 2109 -19 177
-67 544 -105 815 -94 667 -121 901 -145 1252 l-6 91 122 31 c67 18 124 34 127
37 3 3 -5 49 -17 103 -13 53 -65 283 -116 510 l-94 413 263 402 c680 1043
1117 1743 1212 1942 21 43 36 93 40 131 14 131 -34 317 -142 555 -30 68 -135
313 -231 544 -326 783 -477 1123 -552 1245 -16 26 -72 140 -124 253 -236 513
-432 762 -699 887 -173 81 -585 203 -989 294 -113 25 -225 45 -250 45 -24 -1
-289 -12 -589 -25z m2289 -3017 c171 -323 311 -592 311 -597 0 -9 -698 -1809
-708 -1824 -8 -14 -15 13 -82 349 -72 363 -117 623 -126 731 -14 164 52 715
181 1524 24 151 51 317 61 368 l17 94 17 -29 c10 -15 158 -293 329 -616z"/>
<path d="M53568 20142 c-3 -12 -17 -26 -30 -31 -14 -6 -17 -10 -7 -10 20 -1
52 34 47 51 -3 7 -7 3 -10 -10z"/>
<path d="M53251 19996 c-9 -10 -8 -15 3 -19 10 -4 14 0 13 14 -2 23 -1 23 -16
5z"/>
<path d="M53298 19933 c7 -3 16 -2 19 1 4 3 -2 6 -13 5 -11 0 -14 -3 -6 -6z"/>
<path d="M8180 19917 c0 -9 4 -18 9 -21 5 -4 8 1 7 9 -3 21 -16 31 -16 12z"/>
<path d="M8176 19832 c-3 -5 1 -9 9 -9 8 0 12 4 9 9 -3 4 -7 8 -9 8 -2 0 -6
-4 -9 -8z"/>
<path d="M8180 19779 c-6 -11 -10 -25 -8 -30 2 -5 8 4 15 21 13 34 9 40 -7 9z"/>
<path d="M8160 19689 c0 -5 5 -7 10 -4 6 3 10 8 10 11 0 2 -4 4 -10 4 -5 0
-10 -5 -10 -11z"/>
<path d="M15663 19655 c0 -8 4 -12 9 -9 5 3 6 10 3 15 -9 13 -12 11 -12 -6z"/>
<path d="M15614 19649 c-4 -7 -3 -9 4 -5 5 3 13 0 15 -6 4 -9 6 -10 6 -1 1 17
-16 25 -25 12z"/>
<path d="M15835 19619 c-4 -6 -5 -12 -2 -15 2 -3 7 2 10 11 7 17 1 20 -8 4z"/>
<path d="M15857 19613 c-10 -9 -9 -23 1 -23 5 0 9 7 9 15 0 17 -1 18 -10 8z"/>
<path d="M8141 19595 c1 -11 -2 -30 -4 -42 -8 -31 1 -29 13 3 7 16 7 32 1 42
-9 15 -10 15 -10 -3z"/>
<path d="M15716 19588 c3 -5 10 -6 15 -3 13 9 11 12 -6 12 -8 0 -12 -4 -9 -9z"/>
<path d="M15910 19540 c0 -5 5 -10 11 -10 5 0 7 5 4 10 -3 6 -8 10 -11 10 -2
0 -4 -4 -4 -10z"/>
<path d="M15813 19513 c-7 -3 -13 -8 -13 -13 0 -10 24 -7 28 4 5 11 -1 14 -15
9z"/>
<path d="M8125 19475 c-11 -19 -16 -37 -12 -41 3 -4 9 2 12 12 4 10 11 27 16
37 6 11 9 21 6 23 -2 2 -12 -11 -22 -31z"/>
<path d="M15186 19502 c-2 -4 -20 -48 -39 -97 -19 -50 -51 -130 -70 -178 -69
-171 -148 -485 -162 -647 l-5 -65 19 60 c63 204 151 328 281 396 40 21 58 24
165 24 112 0 124 -2 180 -29 119 -58 203 -179 242 -345 22 -93 24 -310 5 -521
-34 -393 -33 -890 4 -1051 22 -98 34 -119 96 -172 193 -163 530 -294 1015
-392 153 -32 574 -99 578 -92 2 1 -2 97 -8 213 l-10 210 46 161 c67 234 90
365 91 508 0 141 -16 213 -73 330 -92 186 -254 346 -976 966 -171 146 -345
300 -387 341 l-78 75 0 66 c0 64 -1 66 -32 82 -18 9 -53 18 -77 20 -24 2 -47
7 -50 12 -3 4 -33 9 -65 11 -32 2 -192 30 -354 63 -306 61 -328 64 -336 51z"/>
<path d="M16034 19478 l-19 -23 23 19 c12 11 22 21 22 23 0 8 -8 2 -26 -19z"/>
<path d="M8146 19465 c-3 -8 -1 -15 4 -15 6 0 10 7 10 15 0 8 -2 15 -4 15 -2
0 -6 -7 -10 -15z"/>
<path d="M10273 19462 c-8 -14 -8 -19 1 -19 7 0 13 9 13 19 1 10 1 18 0 18 -1
0 -7 -8 -14 -18z"/>
<path d="M10180 19459 c0 -5 5 -7 10 -4 6 3 10 8 10 11 0 2 -4 4 -10 4 -5 0
-10 -5 -10 -11z"/>
<path d="M10207 19455 c-15 -11 -17 -33 -17 -170 0 -131 3 -162 16 -176 14
-16 14 -18 -4 -28 -14 -8 -19 -7 -19 4 0 8 4 12 9 9 4 -3 8 0 8 5 0 6 -4 11
-10 11 -6 0 -10 63 -10 169 0 94 -4 172 -9 176 -5 3 -25 -10 -45 -28 -20 -19
-37 -32 -39 -30 -10 9 -115 -118 -144 -174 -30 -54 -31 -61 -15 -66 9 -3 62
-22 117 -42 55 -20 107 -38 115 -40 8 -2 15 -4 15 -5 0 -8 56 -7 60 1 3 5 -2
6 -12 3 -17 -5 -17 -5 0 9 17 14 25 33 10 24 -5 -3 -8 75 -8 173 0 138 3 176
13 173 6 -3 12 -3 12 0 0 12 -27 14 -43 2z m-50 -50 c0 -8 -4 -12 -9 -9 -5 3
-6 10 -3 15 9 13 12 11 12 -6z"/>
<path d="M8124 19425 c-4 -8 -10 -13 -14 -10 -12 7 -19 -58 -7 -73 7 -9 6 -11
-8 -6 -15 6 -16 4 -5 -16 7 -12 7 -20 2 -16 -13 8 -26 -29 -16 -45 4 -8 3 -9
-4 -5 -10 6 -26 -43 -27 -79 0 -5 -3 -12 -7 -15 -4 -3 -9 -17 -10 -30 -2 -14
-5 -27 -8 -30 -3 -3 -21 -45 -39 -95 -19 -49 -56 -142 -84 -205 -27 -63 -65
-151 -84 -195 -61 -141 -85 -252 -90 -420 -4 -128 -2 -166 17 -254 35 -174
106 -336 223 -511 76 -115 157 -211 169 -204 7 5 9 1 5 -9 -4 -11 -1 -17 7
-17 7 0 13 7 13 15 0 8 -4 15 -9 15 -5 0 -4 9 2 20 9 16 8 18 -5 14 -11 -5
-13 -2 -9 10 3 9 10 16 15 16 5 0 9 420 9 1000 0 882 -2 1000 -15 1000 -13 0
-15 -118 -15 -997 0 -549 -4 -1003 -8 -1010 -4 -6 -6 444 -4 1000 1 673 6
1013 12 1017 6 4 8 14 5 22 -4 9 -2 19 4 23 6 3 11 11 11 18 0 6 -7 2 -16 -9
-15 -18 -15 -18 -10 0 4 10 1 26 -6 35 -12 14 -11 15 5 2 21 -16 29 -11 32 23
3 27 -22 44 -31 21z m26 -25 c0 -5 -4 -10 -10 -10 -5 0 -10 5 -10 10 0 6 5 10
10 10 6 0 10 -4 10 -10z m-123 -1622 c-1 -233 -2 -43 -2 422 0 465 1 655 2
423 2 -233 2 -613 0 -845z m113 -543 c0 -12 -19 -12 -23 0 -4 9 -1 12 9 8 7
-3 14 -7 14 -8z"/>
<path d="M21886 17848 c-256 -508 -575 -1140 -708 -1405 l-243 -483 -1577 0
-1578 0 0 -90 0 -90 1633 0 1632 0 730 1447 c402 795 731 1451 733 1457 2 9
-135 86 -153 86 -2 0 -213 -415 -469 -922z"/>
<path d="M14902 18490 c0 -14 2 -19 5 -12 2 6 2 18 0 25 -3 6 -5 1 -5 -13z"/>
<path d="M6483 16795 c-192 -42 -313 -178 -313 -355 0 -109 68 -299 166 -463
63 -105 138 -207 150 -203 6 3 11 -3 10 -12 0 -9 4 -16 10 -15 7 1 11 -4 10
-11 0 -7 33 -51 74 -96 74 -81 75 -82 81 -53 3 15 1 37 -5 48 -13 26 -14 37
-4 52 6 7 4 14 -3 19 -8 4 -9 3 -5 -4 11 -18 -3 -14 -30 7 -22 17 -22 20 -6
26 15 6 15 8 2 18 -23 17 -151 192 -192 262 -133 223 -179 387 -144 507 31
107 133 174 281 185 l70 6 0 48 0 49 -45 -1 c-25 0 -73 -7 -107 -14z m162
-1150 c-2 -14 1 -25 6 -25 5 0 9 -5 9 -11 0 -6 -6 -9 -12 -7 -7 3 -14 21 -16
42 -1 21 2 35 6 32 5 -3 8 -17 7 -31z"/>
<path d="M6644 16801 c-6 -7 -5 -77 2 -84 16 -15 34 8 34 43 0 28 5 40 18 43
9 2 2 4 -16 3 -19 0 -35 -3 -38 -5z"/>
<path d="M15303 16176 c32 -83 88 -319 108 -461 17 -113 17 -424 0 -530 -7
-44 -43 -237 -81 -430 -38 -192 -76 -402 -86 -465 -17 -116 -42 -186 -274
-776 -46 -118 -83 -249 -107 -389 -26 -149 -23 -519 6 -665 48 -243 186 -1738
221 -2385 15 -278 -1 -848 -29 -1010 -33 -190 -78 -347 -186 -639 -104 -284
-162 -615 -185 -1055 -12 -227 -16 -1825 -5 -1882 7 -36 6 -37 -47 -67 -81
-45 -200 -143 -252 -207 -42 -52 -46 -61 -40 -94 17 -92 105 -298 301 -701
l120 -245 -13 -85 c-7 -47 -19 -158 -25 -247 -18 -235 4 -378 64 -418 49 -32
181 -37 622 -24 286 8 505 9 685 3 613 -21 754 -3 828 106 29 43 26 109 -7
164 -68 110 -511 316 -1146 534 l-140 48 -23 65 c-13 35 -42 134 -65 219 -39
150 -40 160 -40 310 1 85 6 238 13 340 l12 185 142 140 c78 77 291 298 473
490 367 388 652 672 878 876 132 118 383 334 1300 1118 458 391 680 590 719
642 304 409 207 1283 -288 2596 -282 748 -735 1716 -1203 2572 -46 85 -85 159
-86 163 -1 5 47 31 107 58 59 27 110 50 112 52 2 2 -10 73 -26 158 -90 485
-136 954 -127 1291 3 114 3 248 0 298 l-6 91 -256 0 c-851 0 -1620 99 -1913
246 -55 28 -62 29 -55 10z m1689 -5519 c523 -583 771 -923 786 -1077 6 -63
-13 -195 -38 -267 -48 -136 -133 -227 -460 -489 -126 -101 -267 -225 -320
-280 -343 -359 -828 -1042 -1134 -1599 -36 -66 -66 -116 -66 -112 0 13 89 433
126 592 19 83 54 211 79 285 84 258 119 421 175 809 58 401 69 442 215 806
171 426 331 919 456 1403 13 50 26 92 29 92 3 0 72 -73 152 -163z"/>
<path d="M6996 15939 c-12 -62 -10 -65 52 -78 31 -7 99 -26 150 -43 52 -16
103 -31 114 -33 25 -5 49 17 45 43 -3 18 -33 56 -46 58 -3 0 -14 4 -23 8 -9 4
-22 8 -30 10 -7 1 -18 4 -23 8 -12 7 -207 58 -223 58 -5 0 -12 -14 -16 -31z
m342 -92 c6 0 10 -3 7 -6 -11 -11 -31 -8 -45 7 -13 14 -12 15 5 8 11 -5 26 -9
33 -9z m9 -33 c-3 -3 -12 -4 -19 -1 -8 3 -5 6 6 6 11 1 17 -2 13 -5z"/>
<path d="M6705 15619 c-11 -16 -1 -19 13 -3 7 8 8 14 3 14 -5 0 -13 -5 -16
-11z"/>
<path d="M6707 15539 c7 -7 15 -10 18 -7 3 3 -2 9 -12 12 -14 6 -15 5 -6 -5z"/>
<path d="M6710 15516 c0 -2 8 -10 18 -17 15 -13 16 -12 3 4 -13 16 -21 21 -21
13z"/>
<path d="M10275 11749 c-4 -6 -5 -12 -2 -15 2 -3 7 2 10 11 7 17 1 20 -8 4z"/>
<path d="M10285 11719 c-4 -6 -5 -12 -2 -15 2 -3 7 2 10 11 7 17 1 20 -8 4z"/>
<path d="M52191 5258 c-133 -20 -433 -142 -746 -303 -166 -85 -213 -105 -275
-115 -87 -15 -254 -8 -343 14 -52 12 -68 12 -154 -5 -274 -53 -410 -150 -388
-278 11 -66 75 -106 217 -135 245 -50 737 -41 900 16 22 8 92 64 175 139 274
251 401 335 467 309 54 -20 79 -134 74 -341 l-3 -150 70 3 70 3 27 250 c38
360 35 440 -20 562 l-17 39 -54 -8z"/>
<path d="M55029 4568 c-108 -198 -152 -336 -153 -478 -1 -130 19 -187 93 -261
88 -87 195 -119 406 -119 351 0 503 176 522 607 6 128 -3 215 -28 282 -10 25
-11 24 -43 -36 -74 -138 -167 -236 -274 -286 -60 -29 -76 -32 -157 -32 -101 0
-145 17 -202 77 -57 60 -102 176 -103 263 -1 74 -14 70 -61 -17z"/>
</g>
</svg>
