<svg xmlns="http://www.w3.org/2000/svg" version="1.1" xmlns:xlink="http://www.w3.org/1999/xlink" xmlns:svgjs="http://svgjs.dev/svgjs" width="1500" height="935" viewBox="0 0 1500 935"><g transform="matrix(1,0,0,1,-0.9090909090909918,0.3785425101214628)"><svg viewBox="0 0 396 247" data-background-color="#ffffff" preserveAspectRatio="xMidYMid meet" height="935" width="1500" xmlns="http://www.w3.org/2000/svg" xmlns:xlink="http://www.w3.org/1999/xlink"><g id="tight-bounds" transform="matrix(1,0,0,1,0.2400000000000091,-0.09999999999999432)"><svg viewBox="0 0 395.52 247.2" height="247.2" width="395.52"><g><svg></svg></g><g><svg viewBox="0 0 395.52 247.2" height="247.2" width="395.52"><g transform="matrix(1,0,0,1,75.54432,95.99389448968257)"><svg viewBox="0 0 244.43135999999998 55.21221102063484" height="55.21221102063484" width="244.43135999999998"><g><svg viewBox="0 0 244.43135999999998 55.21221102063484" height="55.21221102063484" width="244.43135999999998"><g><svg viewBox="0 0 244.43135999999998 55.21221102063484" height="55.21221102063484" width="244.43135999999998"><g><svg viewBox="0 0 244.43135999999998 55.21221102063484" height="55.21221102063484" width="244.43135999999998"><g id="textblocktransform"><svg viewBox="0 0 244.43135999999998 55.21221102063484" height="55.21221102063484" width="244.43135999999998" id="textblock"><g><svg viewBox="0 0 244.43135999999998 29.778828387096773" height="29.778828387096773" width="244.43135999999998"><g transform="matrix(1,0,0,1,0,0)"><svg width="244.43135999999998" viewBox="4.47 -37.5 311.78 37.99" height="29.778828387096773" data-palette-color="#000"><path d="M9.16-35.55L9.16 0 4.47 0 4.47-35.55 9.16-35.55ZM41.57-35.55L41.57-31.69 30.15-31.69 30.15 0 25.49 0 25.49-31.69 14.08-31.69 14.08-35.55 41.57-35.55ZM71.31-13.92L62.93-13.92 62.93 0 58.24 0 58.24-35.55 71.35-35.55Q77.19-35.55 80.5-32.57 83.81-29.59 83.81-24.68L83.81-24.68Q83.81-19.51 80.57-16.71 77.34-13.92 71.31-13.92L71.31-13.92ZM62.93-31.69L62.93-17.75 71.35-17.75Q75.11-17.75 77.12-19.52 79.12-21.29 79.12-24.63L79.12-24.63Q79.12-27.81 77.12-29.71 75.11-31.62 71.62-31.69L71.62-31.69 62.93-31.69ZM93.59-37.5L93.59-23.22Q96.6-26.9 101.41-26.9L101.41-26.9Q109.78-26.9 109.85-17.46L109.85-17.46 109.85 0 105.34 0 105.34-17.48Q105.31-20.34 104.03-21.7 102.75-23.07 100.04-23.07L100.04-23.07Q97.84-23.07 96.18-21.9 94.52-20.73 93.59-18.82L93.59-18.82 93.59 0 89.08 0 89.08-37.5 93.59-37.5ZM121.52-26.42L121.52 0 117 0 117-26.42 121.52-26.42ZM116.64-33.42L116.64-33.42Q116.64-34.52 117.31-35.28 117.98-36.04 119.3-36.04 120.62-36.04 121.3-35.28 121.98-34.52 121.98-33.42 121.98-32.32 121.3-31.59 120.62-30.86 119.3-30.86 117.98-30.86 117.31-31.59 116.64-32.32 116.64-33.42ZM154.89-13.92L146.52-13.92 146.52 0 141.83 0 141.83-35.55 154.94-35.55Q160.77-35.55 164.08-32.57 167.39-29.59 167.39-24.68L167.39-24.68Q167.39-19.51 164.15-16.71 160.92-13.92 154.89-13.92L154.89-13.92ZM146.52-31.69L146.52-17.75 154.94-17.75Q158.7-17.75 160.7-19.52 162.7-21.29 162.7-24.63L162.7-24.63Q162.7-27.81 160.7-29.71 158.7-31.62 155.21-31.69L155.21-31.69 146.52-31.69ZM175.03-26.42L181.74-6.13 188.29-26.42 192.9-26.42 183.43 0 179.98 0 170.41-26.42 175.03-26.42ZM198.85-32.81L203.37-32.81 203.37-26.42 208.3-26.42 208.3-22.92 203.37-22.92 203.37-6.54Q203.37-4.96 204.03-4.16 204.69-3.37 206.28-3.37L206.28-3.37Q207.06-3.37 208.42-3.66L208.42-3.66 208.42 0Q206.64 0.49 204.96 0.49L204.96 0.49Q201.93 0.49 200.39-1.34 198.85-3.17 198.85-6.54L198.85-6.54 198.85-22.92 194.04-22.92 194.04-26.42 198.85-26.42 198.85-32.81ZM213.67-2.37L213.67-2.37Q213.67-3.54 214.37-4.32 215.06-5.1 216.45-5.1 217.85-5.1 218.57-4.32 219.29-3.54 219.29-2.37L219.29-2.37Q219.29-1.25 218.57-0.49 217.85 0.27 216.45 0.27 215.06 0.27 214.37-0.49 213.67-1.25 213.67-2.37ZM244.53-35.55L244.53-3.83 261.37-3.83 261.37 0 239.81 0 239.81-35.55 244.53-35.55ZM267.62-32.81L272.14-32.81 272.14-26.42 277.07-26.42 277.07-22.92 272.14-22.92 272.14-6.54Q272.14-4.96 272.79-4.16 273.45-3.37 275.04-3.37L275.04-3.37Q275.82-3.37 277.19-3.66L277.19-3.66 277.19 0Q275.41 0.49 273.72 0.49L273.72 0.49Q270.7 0.49 269.16-1.34 267.62-3.17 267.62-6.54L267.62-6.54 267.62-22.92 262.81-22.92 262.81-26.42 267.62-26.42 267.62-32.81ZM281.24-13.09L281.24-13.43Q281.24-19.51 284.12-23.21 287-26.9 291.66-26.9L291.66-26.9Q296.3-26.9 299.01-23.73L299.01-23.73 299.01-37.5 303.53-37.5 303.53 0 299.38 0 299.16-2.83Q296.45 0.49 291.62 0.49L291.62 0.49Q287.03 0.49 284.13-3.27 281.24-7.03 281.24-13.09L281.24-13.09ZM285.76-12.92L285.76-12.92Q285.76-8.42 287.61-5.88 289.47-3.34 292.74-3.34L292.74-3.34Q297.04-3.34 299.01-7.2L299.01-7.2 299.01-19.34Q296.99-23.07 292.79-23.07L292.79-23.07Q289.47-23.07 287.61-20.51 285.76-17.94 285.76-12.92ZM310.63-2.37L310.63-2.37Q310.63-3.54 311.33-4.32 312.02-5.1 313.41-5.1 314.81-5.1 315.53-4.32 316.25-3.54 316.25-2.37L316.25-2.37Q316.25-1.25 315.53-0.49 314.81 0.27 313.41 0.27 312.02 0.27 311.33-0.49 310.63-1.25 310.63-2.37Z" opacity="1" transform="matrix(1,0,0,1,0,0)" fill="#000" class="wordmark-text-0" data-fill-palette-color="primary" id="text-0"></path></svg></g></svg></g><g transform="matrix(1,0,0,1,0,36.80889507740903)"><svg viewBox="0 0 244.43135999999998 18.403315943225806" height="18.403315943225806" width="244.43135999999998"><g transform="matrix(1,0,0,1,0,0)"><svg width="244.43135999999998" viewBox="0.35 -38 674.06 50.75" height="18.403315943225806" data-palette-color="#000"><path d="M15.65 0.5L14.2 0.5 5.25-26.1Q4.4-28.75 3.9-30.28 3.4-31.8 3.15-32.9L3.15-32.9Q2.45-32.85 1.75-32.85 1.05-32.85 0.35-32.8L0.35-32.8 0.35-35 12.5-35 12.5-33.35Q9.6-33.2 9.03-32.05 8.45-30.9 9.25-27.9L9.25-27.9Q10.1-24.6 11.1-21.95 12.1-19.3 13.05-16.25L13.05-16.25Q13.75-14 14.48-12.1 15.2-10.2 15.95-7.85L15.95-7.85 16.05-7.85Q16.3-8.7 16.57-9.65 16.85-10.6 17.15-11.5 17.45-12.4 17.7-13.18 17.95-13.95 18.1-14.45L18.1-14.45Q19.5-18.9 20.88-23.08 22.25-27.25 23.3-30.43 24.35-33.6 24.75-35.1L24.75-35.1 26.35-35.1Q26.8-33.45 27.65-30.9 28.5-28.35 29.45-25.55 30.4-22.75 31.23-20.25 32.05-17.75 32.55-16.25L32.55-16.25Q33.25-14 34.02-11.8 34.8-9.6 35.45-7.25L35.45-7.25 35.6-7.25Q36.05-8.7 36.58-10.35 37.1-12 37.65-13.7L37.65-13.7Q38.95-17.4 39.78-19.9 40.6-22.4 41.13-24.05 41.65-25.7 42.03-26.93 42.4-28.15 42.8-29.3L42.8-29.3Q43.1-30.15 43.48-31.13 43.85-32.1 44.35-32.95L44.35-32.95Q43.35-32.9 42.35-32.88 41.35-32.85 40.35-32.8L40.35-32.8 40.35-35 50.5-35 50.5-33.35Q48.8-33.15 47.83-32.6 46.85-32.05 46.1-30.55 45.35-29.05 44.3-25.95L44.3-25.95Q42-19.15 39.83-12.58 37.65-6 35.3 0.5L35.3 0.5 33.8 0.5 26.2-21.2Q25.75-22.5 25.33-23.75 24.9-25 24.45-26.25L24.45-26.25Q24.05-25 23.63-23.75 23.2-22.5 22.8-21.25L22.8-21.25 15.65 0.5ZM74.09 0.8L74.09 0.8Q70.64 0.8 67.87-0.83 65.09-2.45 63.49-5.43 61.89-8.4 61.89-12.45L61.89-12.45Q61.89-15.95 63.47-19 65.04-22.05 67.89-23.93 70.74-25.8 74.49-25.8L74.49-25.8Q76.59-25.8 78.42-25.13 80.24-24.45 81.64-23.08 83.04-21.7 83.84-19.63 84.64-17.55 84.64-14.75L84.64-14.75 67.04-14.45Q67.04-10.65 67.87-7.78 68.69-4.9 70.54-3.33 72.39-1.75 75.29-1.75L75.29-1.75Q76.84-1.75 78.47-2.3 80.09-2.85 81.49-3.8 82.89-4.75 83.74-5.9L83.74-5.9 84.94-4.9Q83.59-2.8 81.69-1.55 79.79-0.3 77.79 0.25 75.79 0.8 74.09 0.8ZM67.19-16.55L67.19-16.55 79.94-16.55Q79.94-18.35 79.42-20.03 78.89-21.7 77.69-22.78 76.49-23.85 74.54-23.85L74.54-23.85Q71.64-23.85 69.72-22.13 67.79-20.4 67.19-16.55ZM102.58 0L102.68-31.25Q102.68-32.05 102.71-32.77 102.73-33.5 102.83-34.5L102.83-34.5Q101.93-34.45 101.06-34.4 100.18-34.35 99.28-34.3L99.28-34.3 99.28-36.4Q101.48-36.4 102.71-36.6 103.93-36.8 104.56-37.1 105.18-37.4 105.53-37.75L105.53-37.75 106.98-37.75 106.98-22.85Q108.38-24.25 110.31-25.03 112.23-25.8 114.53-25.8L114.53-25.8Q117.73-25.8 120.31-24.25 122.88-22.7 124.38-19.85 125.88-17 125.88-13.1L125.88-13.1Q125.88-8.85 124.03-5.73 122.18-2.6 119.23-0.9 116.28 0.8 112.88 0.8L112.88 0.8Q111.18 0.8 109.16 0.18 107.13-0.45 105.53-2.25L105.53-2.25 104.33 0 102.58 0ZM106.98-20.5L106.98-7.85Q106.98-5.2 107.83-3.78 108.68-2.35 110.03-1.8 111.38-1.25 112.88-1.25L112.88-1.25Q115.28-1.25 117.03-2.6 118.78-3.95 119.76-6.33 120.73-8.7 120.73-11.85L120.73-11.85Q120.73-15.25 119.88-17.82 119.03-20.4 117.33-21.88 115.63-23.35 113.03-23.35L113.03-23.35Q111.38-23.35 109.76-22.58 108.13-21.8 106.98-20.5L106.98-20.5ZM189.67 0L182.52 0Q182.37-0.85 182.32-1.5 182.27-2.15 182.17-2.85L182.17-2.85Q180.47-1.15 178.49-0.18 176.52 0.8 174.32 0.8L174.32 0.8Q170.52 0.8 168.67-0.93 166.82-2.65 166.82-5.15L166.82-5.15Q166.82-7.45 168.24-9.13 169.67-10.8 171.94-11.88 174.22-12.95 176.89-13.48 179.57-14 182.07-13.95L182.07-13.95 182.07-17.05Q182.07-18.8 181.77-20.35 181.47-21.9 180.47-22.9 179.47-23.9 177.27-23.95L177.27-23.95Q175.82-24 174.29-23.4 172.77-22.8 172.07-21.35L172.07-21.35Q172.47-20.95 172.59-20.43 172.72-19.9 172.72-19.45L172.72-19.45Q172.72-18.85 172.22-18.07 171.72-17.3 170.47-17.35L170.47-17.35Q169.42-17.35 168.87-18.07 168.32-18.8 168.32-19.8L168.32-19.8Q168.32-21.5 169.59-22.85 170.87-24.2 173.12-25 175.37-25.8 178.22-25.8L178.22-25.8Q182.42-25.8 184.42-23.58 186.42-21.35 186.37-16.55L186.37-16.55Q186.37-14.7 186.37-12.83 186.37-10.95 186.34-9.08 186.32-7.2 186.32-5.3L186.32-5.3Q186.32-4.5 186.27-3.7 186.22-2.9 186.12-1.9L186.12-1.9Q187.02-1.95 187.89-2 188.77-2.05 189.67-2.1L189.67-2.1 189.67 0ZM182.07-12.25L182.07-12.25Q180.37-12.2 178.49-11.83 176.62-11.45 175.04-10.7 173.47-9.95 172.49-8.72 171.52-7.5 171.57-5.75L171.57-5.75Q171.67-3.9 172.79-2.98 173.92-2.05 175.47-2.05L175.47-2.05Q177.52-2.05 179.04-2.83 180.57-3.6 182.07-5L182.07-5Q182.02-5.55 182.02-6.2 182.02-6.85 182.02-7.55L182.02-7.55Q182.02-7.8 182.04-9.15 182.07-10.5 182.07-12.25ZM214.86 12.75L204.66 12.75 204.66 11.25Q206.21 11.25 206.81 10.48 207.41 9.7 207.51 8.33 207.61 6.95 207.61 5.15L207.61 5.15 207.71-19Q207.71-19.8 207.73-20.6 207.76-21.4 207.91-22.25L207.91-22.25Q207.01-22.2 206.13-22.15 205.26-22.1 204.36-22.05L204.36-22.05 204.36-24.15Q206.56-24.15 207.68-24.35 208.81-24.55 209.33-24.85 209.86-25.15 210.21-25.5L210.21-25.5 211.71-25.5Q211.76-25 211.81-24.33 211.86-23.65 211.91-22.8L211.91-22.8Q213.41-24.15 215.48-24.98 217.56-25.8 219.66-25.8L219.66-25.8Q222.56-25.8 225.06-24.3 227.56-22.8 229.11-20.03 230.66-17.25 230.66-13.4L230.66-13.4Q230.66-9.15 228.88-5.95 227.11-2.75 224.21-0.98 221.31 0.8 217.91 0.8L217.91 0.8Q216.16 0.8 214.68 0.38 213.21-0.05 211.91-0.85L211.91-0.85 211.91 7.45Q211.91 8.45 211.88 9.22 211.86 10 211.71 10.85L211.71 10.85Q212.51 10.8 213.28 10.78 214.06 10.75 214.86 10.7L214.86 10.7 214.86 12.75ZM217.81-1.2L217.81-1.2Q220.21-1.2 221.93-2.68 223.66-4.15 224.58-6.73 225.51-9.3 225.51-12.6L225.51-12.6Q225.51-15.3 224.73-17.78 223.96-20.25 222.28-21.8 220.61-23.35 217.86-23.35L217.86-23.35Q216.16-23.35 214.58-22.53 213.01-21.7 211.96-20.55L211.96-20.55Q211.96-20.35 211.98-19.98 212.01-19.6 212.01-18.68 212.01-17.75 212.01-15.93 212.01-14.1 211.98-11 211.96-7.9 211.96-3.15L211.96-3.15Q213.21-2.2 214.68-1.7 216.16-1.2 217.81-1.2ZM256.7 12.75L246.5 12.75 246.5 11.25Q248.05 11.25 248.65 10.48 249.25 9.7 249.35 8.33 249.45 6.95 249.45 5.15L249.45 5.15 249.55-19Q249.55-19.8 249.57-20.6 249.6-21.4 249.75-22.25L249.75-22.25Q248.85-22.2 247.97-22.15 247.1-22.1 246.2-22.05L246.2-22.05 246.2-24.15Q248.4-24.15 249.52-24.35 250.65-24.55 251.17-24.85 251.7-25.15 252.05-25.5L252.05-25.5 253.55-25.5Q253.6-25 253.65-24.33 253.7-23.65 253.75-22.8L253.75-22.8Q255.25-24.15 257.32-24.98 259.4-25.8 261.5-25.8L261.5-25.8Q264.4-25.8 266.9-24.3 269.4-22.8 270.95-20.03 272.5-17.25 272.5-13.4L272.5-13.4Q272.5-9.15 270.72-5.95 268.95-2.75 266.05-0.98 263.15 0.8 259.75 0.8L259.75 0.8Q258 0.8 256.52 0.38 255.05-0.05 253.75-0.85L253.75-0.85 253.75 7.45Q253.75 8.45 253.72 9.22 253.7 10 253.55 10.85L253.55 10.85Q254.35 10.8 255.12 10.78 255.9 10.75 256.7 10.7L256.7 10.7 256.7 12.75ZM259.65-1.2L259.65-1.2Q262.05-1.2 263.77-2.68 265.5-4.15 266.42-6.73 267.35-9.3 267.35-12.6L267.35-12.6Q267.35-15.3 266.57-17.78 265.8-20.25 264.12-21.8 262.45-23.35 259.7-23.35L259.7-23.35Q258-23.35 256.42-22.53 254.85-21.7 253.8-20.55L253.8-20.55Q253.8-20.35 253.82-19.98 253.85-19.6 253.85-18.68 253.85-17.75 253.85-15.93 253.85-14.1 253.82-11 253.8-7.9 253.8-3.15L253.8-3.15Q255.05-2.2 256.52-1.7 258-1.2 259.65-1.2ZM325.28 0.8L325.28 0.8Q323.08 0.8 320.98 0.28 318.88-0.25 317.21-1.43 315.53-2.6 314.53-4.48 313.53-6.35 313.53-9L313.53-9Q313.53-12.25 315.66-14.75 317.78-17.25 321.38-18.8L321.38-18.8Q320.08-20.5 319.23-21.98 318.38-23.45 317.98-24.93 317.58-26.4 317.58-27.95L317.58-27.95Q317.63-31.55 320.23-33.68 322.83-35.8 326.83-35.8L326.83-35.8Q329.38-35.8 331.26-34.88 333.13-33.95 334.16-32.38 335.18-30.8 335.18-28.8L335.18-28.8Q335.18-26.95 334.38-25.25 333.58-23.55 331.78-21.98 329.98-20.4 326.98-18.85L326.98-18.85Q328.33-17.45 329.96-15.75 331.58-14.05 333.23-12.43 334.88-10.8 336.23-9.5L336.23-9.5Q336.48-10.4 336.61-11.23 336.73-12.05 336.73-12.7L336.73-12.7Q336.73-13.85 336.41-14.98 336.08-16.1 335.26-16.88 334.43-17.65 332.93-17.7L332.93-17.7 332.93-19.35 341.68-19.35 341.68-17.3 337.53-17.5Q338.33-16.85 338.68-15.8 339.03-14.75 339.08-13.35L339.08-13.35Q339.13-12.4 338.91-10.93 338.68-9.45 338.08-7.85L338.08-7.85Q338.63-7.35 339.26-6.78 339.88-6.2 340.58-5.6L340.58-5.6Q342.83-3.6 344.46-2.63 346.08-1.65 346.88-1.65L346.88-1.65 346.88 0 342.23 0Q341.78 0 340.21-0.93 338.63-1.85 336.03-4.15L336.03-4.15Q334.43-2.1 331.81-0.65 329.18 0.8 325.28 0.8ZM325.88-1.7L325.88-1.7Q329.03-1.6 331.11-2.73 333.18-3.85 334.43-5.55L334.43-5.55Q334.08-5.9 333.73-6.23 333.38-6.55 332.98-6.9L332.98-6.9Q329.63-10.2 327.06-12.75 324.48-15.3 322.68-17.35L322.68-17.35Q321.08-16.4 320.18-15 319.28-13.6 318.91-12.2 318.53-10.8 318.53-9.75L318.53-9.75Q318.53-7 319.61-5.25 320.68-3.5 322.36-2.65 324.03-1.8 325.88-1.7ZM325.88-20.05L325.88-20.05Q328.68-21.9 330.03-24.18 331.38-26.45 331.38-28.65L331.38-28.65Q331.38-31.05 330.13-32.63 328.88-34.2 326.58-34.2L326.58-34.2Q324.53-34.2 323.16-32.68 321.78-31.15 321.78-28.35L321.78-28.35Q321.78-26.2 322.96-24.1 324.13-22 325.88-20.05ZM407.82-24.4L406.02-24.4Q405.87-26.8 404.87-28.95 403.87-31.1 401.97-32.45 400.07-33.8 397.12-33.8L397.12-33.8Q394.02-33.8 392.37-32.05 390.72-30.3 390.72-27.95L390.72-27.95Q390.72-25.85 391.92-24.43 393.12-23 395.04-21.93 396.97-20.85 399.12-19.85L399.12-19.85Q401.02-19 402.92-18.03 404.82-17.05 406.37-15.8 407.92-14.55 408.84-12.83 409.77-11.1 409.77-8.7L409.77-8.7Q409.77-5.95 408.39-3.8 407.02-1.65 404.42-0.43 401.82 0.8 398.07 0.8L398.07 0.8Q395.82 0.8 393.42 0.15 391.02-0.5 389.17-1.75L389.17-1.75 389.42 0.4 386.82 0.4 386.52-10.25 388.47-10.25Q388.72-5.85 391.52-3.58 394.32-1.3 398.27-1.3L398.27-1.3Q400.22-1.3 401.87-2.02 403.52-2.75 404.49-4.15 405.47-5.55 405.47-7.55L405.47-7.55Q405.47-9.8 404.27-11.3 403.07-12.8 401.17-13.9 399.27-15 397.12-16L397.12-16Q395.22-16.85 393.37-17.8 391.52-18.75 389.99-19.98 388.47-21.2 387.54-22.9 386.62-24.6 386.62-27L386.62-27Q386.62-28.3 387.07-29.8 387.52-31.3 388.64-32.68 389.77-34.05 391.74-34.93 393.72-35.8 396.77-35.8L396.77-35.8Q398.67-35.8 401.04-35.27 403.42-34.75 405.47-33.25L405.47-33.25 405.27-35.4 407.82-35.4 407.82-24.4ZM438.56 0.8L438.56 0.8Q435.06 0.8 432.21-0.83 429.36-2.45 427.68-5.33 426.01-8.2 426.01-11.9L426.01-11.9Q426.01-15.85 427.66-19 429.31-22.15 432.16-23.98 435.01-25.8 438.56-25.8L438.56-25.8Q442.06-25.8 444.91-24.13 447.76-22.45 449.46-19.6 451.16-16.75 451.16-13.1L451.16-13.1Q451.16-9.25 449.48-6.08 447.81-2.9 444.96-1.05 442.11 0.8 438.56 0.8ZM438.96-1.2L438.96-1.2Q441.61-1.2 443.16-2.7 444.71-4.2 445.38-6.6 446.06-9 446.06-11.65L446.06-11.65Q446.06-13.9 445.63-16.07 445.21-18.25 444.31-20.03 443.41-21.8 441.98-22.85 440.56-23.9 438.56-23.9L438.56-23.9Q435.96-23.9 434.31-22.4 432.66-20.9 431.88-18.5 431.11-16.1 431.11-13.35L431.11-13.35Q431.11-10.25 431.96-7.48 432.81-4.7 434.56-2.95 436.31-1.2 438.96-1.2ZM470.3-25L470.3-26.05Q470.3-31.6 472.32-34.8 474.35-38 479.3-38L479.3-38Q480.4-38 481.62-37.63 482.85-37.25 483.75-36.43 484.65-35.6 484.65-34.3L484.65-34.3Q484.65-33.35 484.12-32.7 483.6-32.05 482.6-32.05L482.6-32.05Q481.4-32 480.92-32.77 480.45-33.55 480.45-34.1L480.45-34.1Q480.45-34.4 480.5-34.7 480.55-35 480.7-35.35L480.7-35.35Q480.35-35.8 479.72-36 479.1-36.2 478.55-36.2L478.55-36.2Q477-36.2 476.15-35.3 475.3-34.4 474.95-33.05 474.6-31.7 474.6-30.25L474.6-30.25 474.6-25 481.35-25 481.35-23.05 474.6-22.9 474.65-5.3Q474.65-4.3 474.62-3.53 474.6-2.75 474.45-1.9L474.45-1.9Q475.25-1.95 476.02-1.98 476.8-2 477.6-2.05L477.6-2.05 477.6 0 467.4 0 467.4-1.5Q468.95-1.5 469.55-2.27 470.15-3.05 470.25-4.42 470.35-5.8 470.35-7.6L470.35-7.6 470.3-22.85 466.2-22.75 466.2-25 470.3-25ZM506.04 0.8L506.04 0.8Q504.89 0.8 503.69 0.48 502.49 0.15 501.47-0.8 500.44-1.75 499.84-3.58 499.24-5.4 499.24-8.4L499.24-8.4 499.34-22.9 495.49-22.85 495.49-25Q496.79-25.05 498.14-25.98 499.49-26.9 500.57-28.5 501.64-30.1 502.04-32L502.04-32 503.74-32 503.74-25 512.14-25 512.14-23.05 503.74-22.95 503.64-9.05Q503.64-6.8 504.02-5.23 504.39-3.65 505.24-2.85 506.09-2.05 507.44-2.05L507.44-2.05Q508.84-2.05 510.07-2.85 511.29-3.65 512.24-5.05L512.24-5.05 513.59-3.95Q512.49-2.3 511.42-1.35 510.34-0.4 509.34 0.08 508.34 0.55 507.49 0.68 506.64 0.8 506.04 0.8ZM539.33 0.15L537.43 0.15 530.88-19.05Q530.53-20.1 530.26-20.85 529.98-21.6 529.83-22.15 529.68-22.7 529.58-23.1L529.58-23.1 526.93-22.95 526.93-25 537.53-25 537.53-23.5Q535.28-23.45 535.06-21.98 534.83-20.5 535.63-18.1L535.63-18.1 537.93-11.1Q538.33-9.9 538.73-8.68 539.13-7.45 539.53-6.25L539.53-6.25Q539.98-7.6 540.46-8.97 540.93-10.35 541.38-11.75L541.38-11.75 545.83-25 547.88-25 552.93-10.45Q553.33-9.35 553.73-8.2 554.13-7.05 554.53-5.9L554.53-5.9Q554.93-7 555.31-8.08 555.68-9.15 556.03-10.25L556.03-10.25 559.33-19.75Q559.68-20.75 560.03-21.65 560.38-22.55 560.83-23.1L560.83-23.1 557.93-22.95 557.93-25 566.63-25 566.63-23.5Q565.33-23.45 564.51-23.15 563.68-22.85 563.13-22.35 562.58-21.85 562.23-21.15 561.88-20.45 561.58-19.55L561.58-19.55 554.38 0.15 552.38 0.15 547.63-13.5Q547.33-14.4 547.03-15.28 546.73-16.15 546.43-17.03 546.13-17.9 545.83-18.75L545.83-18.75Q545.53-17.9 545.23-17.03 544.93-16.15 544.63-15.28 544.33-14.4 544.03-13.5L544.03-13.5 539.33 0.15ZM602.72 0L595.57 0Q595.42-0.85 595.37-1.5 595.32-2.15 595.22-2.85L595.22-2.85Q593.52-1.15 591.55-0.18 589.57 0.8 587.37 0.8L587.37 0.8Q583.57 0.8 581.72-0.93 579.87-2.65 579.87-5.15L579.87-5.15Q579.87-7.45 581.3-9.13 582.72-10.8 585-11.88 587.27-12.95 589.95-13.48 592.62-14 595.12-13.95L595.12-13.95 595.12-17.05Q595.12-18.8 594.82-20.35 594.52-21.9 593.52-22.9 592.52-23.9 590.32-23.95L590.32-23.95Q588.87-24 587.35-23.4 585.82-22.8 585.12-21.35L585.12-21.35Q585.52-20.95 585.65-20.43 585.77-19.9 585.77-19.45L585.77-19.45Q585.77-18.85 585.27-18.07 584.77-17.3 583.52-17.35L583.52-17.35Q582.47-17.35 581.92-18.07 581.37-18.8 581.37-19.8L581.37-19.8Q581.37-21.5 582.65-22.85 583.92-24.2 586.17-25 588.42-25.8 591.27-25.8L591.27-25.8Q595.47-25.8 597.47-23.58 599.47-21.35 599.42-16.55L599.42-16.55Q599.42-14.7 599.42-12.83 599.42-10.95 599.4-9.08 599.37-7.2 599.37-5.3L599.37-5.3Q599.37-4.5 599.32-3.7 599.27-2.9 599.17-1.9L599.17-1.9Q600.07-1.95 600.95-2 601.82-2.05 602.72-2.1L602.72-2.1 602.72 0ZM595.12-12.25L595.12-12.25Q593.42-12.2 591.55-11.83 589.67-11.45 588.1-10.7 586.52-9.95 585.55-8.72 584.57-7.5 584.62-5.75L584.62-5.75Q584.72-3.9 585.85-2.98 586.97-2.05 588.52-2.05L588.52-2.05Q590.57-2.05 592.1-2.83 593.62-3.6 595.12-5L595.12-5Q595.07-5.55 595.07-6.2 595.07-6.85 595.07-7.55L595.07-7.55Q595.07-7.8 595.1-9.15 595.12-10.5 595.12-12.25ZM618.17 0L618.17-1.5Q619.72-1.5 620.32-2.27 620.92-3.05 621.02-4.42 621.12-5.8 621.12-7.6L621.12-7.6 621.12-19Q621.12-19.8 621.14-20.6 621.17-21.4 621.32-22.25L621.32-22.25Q620.42-22.2 619.54-22.18 618.67-22.15 617.77-22.1L617.77-22.1 617.77-24.15 619.32-24.15Q621.47-24.15 622.29-24.58 623.12-25 623.67-25.5L623.67-25.5 625.12-25.5Q625.22-24.7 625.27-23.53 625.32-22.35 625.37-20.55L625.37-20.55Q626.12-21.8 627.42-23 628.72-24.2 630.34-25 631.97-25.8 633.77-25.8L633.77-25.8Q635.17-25.8 636.22-25.05 637.27-24.3 637.27-22.65L637.27-22.65Q637.27-22.25 637.02-21.68 636.77-21.1 636.22-20.68 635.67-20.25 634.77-20.25L634.77-20.25Q633.67-20.3 633.02-21.13 632.37-21.95 632.52-23.05L632.52-23.05Q631.27-23.1 629.94-22.4 628.62-21.7 627.47-20.48 626.32-19.25 625.42-17.6L625.42-17.6 625.47-5.3Q625.47-4.3 625.44-3.53 625.42-2.75 625.27-1.9L625.27-1.9Q626.07-1.95 626.84-1.98 627.62-2 628.42-2.05L628.42-2.05 628.42 0 618.17 0ZM663.56 0.8L663.56 0.8Q660.11 0.8 657.33-0.83 654.56-2.45 652.96-5.43 651.36-8.4 651.36-12.45L651.36-12.45Q651.36-15.95 652.93-19 654.51-22.05 657.36-23.93 660.21-25.8 663.96-25.8L663.96-25.8Q666.06-25.8 667.88-25.13 669.71-24.45 671.11-23.08 672.51-21.7 673.31-19.63 674.11-17.55 674.11-14.75L674.11-14.75 656.51-14.45Q656.51-10.65 657.33-7.78 658.16-4.9 660.01-3.33 661.86-1.75 664.76-1.75L664.76-1.75Q666.31-1.75 667.93-2.3 669.56-2.85 670.96-3.8 672.36-4.75 673.21-5.9L673.21-5.9 674.41-4.9Q673.06-2.8 671.16-1.55 669.26-0.3 667.26 0.25 665.26 0.8 663.56 0.8ZM656.66-16.55L656.66-16.55 669.41-16.55Q669.41-18.35 668.88-20.03 668.36-21.7 667.16-22.78 665.96-23.85 664.01-23.85L664.01-23.85Q661.11-23.85 659.18-22.13 657.26-20.4 656.66-16.55Z" opacity="1" transform="matrix(1,0,0,1,0,0)" fill="#000" class="slogan-text-1" data-fill-palette-color="secondary" id="text-1"></path></svg></g></svg></g></svg></g></svg></g></svg></g></svg></g></svg></g><path d="M197.659 89.994L197.659 25.821 2.1 25.821 2.1 221.379 197.659 221.379 197.659 157.206 194.973 157.206 194.973 218.694 4.785 218.694 4.785 28.506 194.973 28.506 194.973 89.994Z" fill="#000" stroke="transparent" data-fill-palette-color="tertiary"></path></svg></g><defs></defs></svg><rect width="395.52" height="247.2" fill="none" stroke="none" visibility="hidden"></rect></g></svg></g></svg>